<?xml version="1.0" encoding="UTF-8"?>
<svg id="Layer_1" data-name="Layer 1" xmlns="http://www.w3.org/2000/svg" viewBox="0 0 86.97 35.01">
  <defs>
    <style>
      .cls-1 {
        fill: #4379bd;
      }

      .cls-2 {
        fill: none;
        stroke: #4379bd;
        stroke-miterlimit: 10;
        stroke-width: 1.01px;
      }
    </style>
  </defs>
  <g>
    <path class="cls-1" d="M6.11,26.02V4.19c-2.7.08-4.42.74-5.72,2.78h-.16l.33-3.68h15.04l.33,3.68h-.16c-1.31-2.04-3.07-2.7-5.68-2.78v21.83c0,2.98.12,4.29.57,5.89h-5.15c.45-1.59.61-2.9.61-5.89Z"/>
    <path class="cls-1" d="M19.15,26.02V9.18c0-2.98-.12-4.25-.29-5.89h4.54c-.16,1.64-.29,2.9-.29,5.89v16.84c0,2.98.12,4.25.29,5.89h-4.54c.16-1.63.29-2.9.29-5.89Z"/>
    <path class="cls-1" d="M29.29,26.02V9.18c0-2.98-.12-4.25-.29-5.89h5.27c6.05,0,9.48,2.49,9.48,6.34,0,3.02-2.74,5.31-5.68,5.93,1.43.37,2.33,1.27,3.15,2.7,2.41,4.21,3.88,12.67,5.36,13.53v.12h-5.03c-3.07-11.65-4.62-15.17-6.95-15.53v-.49c3.39-.78,4.95-2.62,4.95-6.13s-1.88-5.52-5.48-5.52h-.82v21.79c0,2.98.12,4.25.29,5.89h-4.54c.16-1.63.29-2.9.29-5.89Z"/>
    <path class="cls-1" d="M49.85,26.02V9.18c0-2.98-.12-4.25-.29-5.89h4.54c-.16,1.64-.29,2.9-.29,5.89v16.84c0,2.98.12,4.25.29,5.89h-4.54c.16-1.63.29-2.9.29-5.89Z"/>
    <path class="cls-1" d="M60.24,26.02V8.98c0-2.86-.21-4.21-.86-5.68l2.21-.08c.16,2.08.98,3.39,2.49,5.23l7.56,10.83c.69.9,1.39,1.76,2.08,3.15v-12.55c0-3.56-.16-5.03-.94-6.58h2.49c-.25,1.72-.37,3.02-.37,5.89v16.84c0,2.9.04,4.13.37,5.89h-2c.25-.82.33-1.43.33-2.04,0-1.63-.61-2.53-2.74-5.52l-6.46-9.32c-1.59-1.84-2.41-2.86-2.98-4.37v15.41c0,2.9.04,4.13.78,5.85h-2.62c.45-1.8.65-3.03.65-5.89Z"/>
    <path class="cls-1" d="M81.09,26.02V9.18c0-2.98-.12-4.25-.29-5.89h4.54c-.16,1.64-.29,2.9-.29,5.89v16.84c0,2.98.12,4.25.29,5.89h-4.54c.16-1.63.29-2.9.29-5.89Z"/>
  </g>
  <line class="cls-2" y1="34.5" x2="86.97" y2="34.5"/>
  <line class="cls-2" y1=".51" x2="86.97" y2=".51"/>
</svg>